# xmcd
#
# Track frame offsets:
#	150
#	12087
#	26440
#	46740
#	60775
#	81952
#	96510
#	110065
#	126835
#	143972
#	166150
#	195277
#
# Disc length: 2817 seconds
#
# Revision: 2
# Processed by: cddbd v1.5.2PL0 Copyright (c) Steve Scherf et al.
# Submitted via: audiograbber 1.81.02
#
DISCID=910aff0c
DTITLE=Various Artist - CDX Volume 168B - August 1997
DYEAR=1997
DGENRE=COUNTRY
TTITLE0=Lois Johnson - After You've Gone
TTITLE1=Lois Johnson w/Joe Don Silvers - Beautiful Memories
TTITLE2=Dona Nelson - Cool Country
TTITLE3=Tracey K. Houston - Falling For You
TTITLE4=A.W. Patterson - Little Cowboys
TTITLE5=Kelli Hake - New Man Tonight
TTITLE6=Rivers - Trail Of Broken Hearts
TTITLE7=Australia's Tornado - Ghost Riders
TTITLE8=Kimber Clayton - Jose' Cuervo
TTITLE9=Australia's Tornado - Ghost Riders (Wild Stallion Mix)
TTITLE10=Kimber Clayton - Jose Cuervo (Global Trance Mix)
TTITLE11=Jimmy Collins - Rodeo Rock
EXTD=
EXTT0=
EXTT1=
EXTT2=
EXTT3=
EXTT4=
EXTT5=
EXTT6=
EXTT7=
EXTT8=
EXTT9=
EXTT10=
EXTT11=
PLAYORDER=
